<mxfile host="Electron" modified="2024-07-23T20:59:24.812Z" agent="Mozilla/5.0 (Windows NT 10.0; Win64; x64) AppleWebKit/537.36 (KHTML, like Gecko) draw.io/21.2.8 Chrome/112.0.5615.165 Electron/24.2.0 Safari/537.36" etag="BWrRMxg--WSa-tBGKY8B" version="21.2.8" type="device">
  <diagram name="Page-1" id="5MRyM1B4O86g6Z81Auo5">
    <mxGraphModel dx="1850" dy="599" grid="1" gridSize="10" guides="1" tooltips="1" connect="1" arrows="1" fold="1" page="1" pageScale="1" pageWidth="850" pageHeight="1100" math="0" shadow="0">
      <root>
        <mxCell id="0" />
        <mxCell id="1" parent="0" />
        <mxCell id="WNrJK8pR0wpa6qFyWCyq-1" value="&lt;b&gt;Stand&lt;/b&gt;" style="rounded=1;whiteSpace=wrap;html=1;fillColor=#dae8fc;strokeColor=#6c8ebf;" vertex="1" parent="1">
          <mxGeometry x="-60" y="590" width="80" height="40" as="geometry" />
        </mxCell>
        <mxCell id="WNrJK8pR0wpa6qFyWCyq-2" value="&lt;b&gt;Jump&lt;/b&gt;" style="rounded=1;whiteSpace=wrap;html=1;fillColor=#dae8fc;strokeColor=#6c8ebf;" vertex="1" parent="1">
          <mxGeometry x="130" y="590" width="80" height="40" as="geometry" />
        </mxCell>
        <mxCell id="WNrJK8pR0wpa6qFyWCyq-4" value="" style="endArrow=classic;html=1;exitX=1;exitY=0.25;exitDx=0;exitDy=0;entryX=0;entryY=0.25;entryDx=0;entryDy=0;curved=1;" edge="1" parent="1" source="WNrJK8pR0wpa6qFyWCyq-1" target="WNrJK8pR0wpa6qFyWCyq-2">
          <mxGeometry width="50" height="50" relative="1" as="geometry">
            <mxPoint x="30" y="400" as="sourcePoint" />
            <mxPoint x="80" y="350" as="targetPoint" />
          </mxGeometry>
        </mxCell>
        <mxCell id="WNrJK8pR0wpa6qFyWCyq-6" value="&lt;b&gt;Run&lt;/b&gt;" style="rounded=1;whiteSpace=wrap;html=1;fillColor=#dae8fc;strokeColor=#6c8ebf;" vertex="1" parent="1">
          <mxGeometry x="-60" y="710" width="80" height="40" as="geometry" />
        </mxCell>
        <mxCell id="WNrJK8pR0wpa6qFyWCyq-7" value="&lt;b&gt;Fall&lt;/b&gt;" style="rounded=1;whiteSpace=wrap;html=1;fillColor=#dae8fc;strokeColor=#6c8ebf;" vertex="1" parent="1">
          <mxGeometry x="-230" y="590" width="80" height="40" as="geometry" />
        </mxCell>
        <mxCell id="WNrJK8pR0wpa6qFyWCyq-8" value="" style="endArrow=classic;html=1;exitX=0.25;exitY=1;exitDx=0;exitDy=0;entryX=0.25;entryY=0;entryDx=0;entryDy=0;curved=1;" edge="1" parent="1" source="WNrJK8pR0wpa6qFyWCyq-1" target="WNrJK8pR0wpa6qFyWCyq-6">
          <mxGeometry width="50" height="50" relative="1" as="geometry">
            <mxPoint x="30" y="620" as="sourcePoint" />
            <mxPoint x="140" y="620" as="targetPoint" />
          </mxGeometry>
        </mxCell>
        <mxCell id="WNrJK8pR0wpa6qFyWCyq-9" value="" style="endArrow=classic;html=1;exitX=0.75;exitY=1;exitDx=0;exitDy=0;entryX=1;entryY=0.75;entryDx=0;entryDy=0;curved=1;" edge="1" parent="1" source="WNrJK8pR0wpa6qFyWCyq-2" target="WNrJK8pR0wpa6qFyWCyq-6">
          <mxGeometry width="50" height="50" relative="1" as="geometry">
            <mxPoint x="30" y="620" as="sourcePoint" />
            <mxPoint x="140" y="620" as="targetPoint" />
            <Array as="points">
              <mxPoint x="180" y="720" />
            </Array>
          </mxGeometry>
        </mxCell>
        <mxCell id="WNrJK8pR0wpa6qFyWCyq-10" value="" style="endArrow=classic;html=1;exitX=0;exitY=0.75;exitDx=0;exitDy=0;entryX=1;entryY=0.75;entryDx=0;entryDy=0;curved=1;" edge="1" parent="1" source="WNrJK8pR0wpa6qFyWCyq-1" target="WNrJK8pR0wpa6qFyWCyq-7">
          <mxGeometry width="50" height="50" relative="1" as="geometry">
            <mxPoint x="-10" y="640" as="sourcePoint" />
            <mxPoint x="-10" y="720" as="targetPoint" />
          </mxGeometry>
        </mxCell>
        <mxCell id="WNrJK8pR0wpa6qFyWCyq-11" value="" style="endArrow=classic;html=1;exitX=0;exitY=0.25;exitDx=0;exitDy=0;entryX=0.75;entryY=1;entryDx=0;entryDy=0;curved=1;" edge="1" parent="1" source="WNrJK8pR0wpa6qFyWCyq-6" target="WNrJK8pR0wpa6qFyWCyq-7">
          <mxGeometry width="50" height="50" relative="1" as="geometry">
            <mxPoint x="-50" y="620" as="sourcePoint" />
            <mxPoint x="-140" y="620" as="targetPoint" />
            <Array as="points">
              <mxPoint x="-170" y="700" />
            </Array>
          </mxGeometry>
        </mxCell>
        <mxCell id="WNrJK8pR0wpa6qFyWCyq-12" value="" style="endArrow=classic;html=1;exitX=0.75;exitY=0;exitDx=0;exitDy=0;entryX=0.25;entryY=0;entryDx=0;entryDy=0;curved=1;" edge="1" parent="1" source="WNrJK8pR0wpa6qFyWCyq-2" target="WNrJK8pR0wpa6qFyWCyq-7">
          <mxGeometry width="50" height="50" relative="1" as="geometry">
            <mxPoint x="-50" y="740" as="sourcePoint" />
            <mxPoint x="-140" y="640" as="targetPoint" />
            <Array as="points">
              <mxPoint x="-10" y="480" />
            </Array>
          </mxGeometry>
        </mxCell>
        <mxCell id="WNrJK8pR0wpa6qFyWCyq-13" value="" style="endArrow=classic;html=1;exitX=0;exitY=0.75;exitDx=0;exitDy=0;entryX=1;entryY=0.75;entryDx=0;entryDy=0;curved=1;" edge="1" parent="1" source="WNrJK8pR0wpa6qFyWCyq-2" target="WNrJK8pR0wpa6qFyWCyq-1">
          <mxGeometry width="50" height="50" relative="1" as="geometry">
            <mxPoint x="30" y="610" as="sourcePoint" />
            <mxPoint x="140" y="610" as="targetPoint" />
          </mxGeometry>
        </mxCell>
        <mxCell id="WNrJK8pR0wpa6qFyWCyq-14" value="" style="endArrow=classic;html=1;exitX=0.75;exitY=0;exitDx=0;exitDy=0;entryX=0.75;entryY=1;entryDx=0;entryDy=0;curved=1;" edge="1" parent="1" source="WNrJK8pR0wpa6qFyWCyq-6" target="WNrJK8pR0wpa6qFyWCyq-1">
          <mxGeometry width="50" height="50" relative="1" as="geometry">
            <mxPoint x="140" y="630" as="sourcePoint" />
            <mxPoint x="30" y="630" as="targetPoint" />
          </mxGeometry>
        </mxCell>
        <mxCell id="WNrJK8pR0wpa6qFyWCyq-16" value="" style="endArrow=classic;html=1;exitX=0.25;exitY=1;exitDx=0;exitDy=0;entryX=0;entryY=0.75;entryDx=0;entryDy=0;curved=1;" edge="1" parent="1" source="WNrJK8pR0wpa6qFyWCyq-7" target="WNrJK8pR0wpa6qFyWCyq-6">
          <mxGeometry width="50" height="50" relative="1" as="geometry">
            <mxPoint x="-50" y="740" as="sourcePoint" />
            <mxPoint x="-180" y="640" as="targetPoint" />
            <Array as="points">
              <mxPoint x="-190" y="730" />
            </Array>
          </mxGeometry>
        </mxCell>
        <mxCell id="WNrJK8pR0wpa6qFyWCyq-17" value="" style="endArrow=classic;html=1;exitX=1;exitY=0.25;exitDx=0;exitDy=0;entryX=0.25;entryY=1;entryDx=0;entryDy=0;curved=1;" edge="1" parent="1" source="WNrJK8pR0wpa6qFyWCyq-6" target="WNrJK8pR0wpa6qFyWCyq-2">
          <mxGeometry width="50" height="50" relative="1" as="geometry">
            <mxPoint x="180" y="640" as="sourcePoint" />
            <mxPoint x="30" y="730" as="targetPoint" />
            <Array as="points">
              <mxPoint x="150" y="700" />
            </Array>
          </mxGeometry>
        </mxCell>
        <mxCell id="WNrJK8pR0wpa6qFyWCyq-18" value="" style="endArrow=classic;html=1;exitX=1;exitY=0.25;exitDx=0;exitDy=0;curved=1;entryX=0;entryY=0.25;entryDx=0;entryDy=0;" edge="1" parent="1" source="WNrJK8pR0wpa6qFyWCyq-7" target="WNrJK8pR0wpa6qFyWCyq-1">
          <mxGeometry width="50" height="50" relative="1" as="geometry">
            <mxPoint x="-50" y="610" as="sourcePoint" />
            <mxPoint x="-80" y="590" as="targetPoint" />
          </mxGeometry>
        </mxCell>
        <mxCell id="WNrJK8pR0wpa6qFyWCyq-19" value="" style="endArrow=classic;html=1;exitX=0.75;exitY=0;exitDx=0;exitDy=0;entryX=0.25;entryY=0;entryDx=0;entryDy=0;curved=1;" edge="1" parent="1" source="WNrJK8pR0wpa6qFyWCyq-7" target="WNrJK8pR0wpa6qFyWCyq-2">
          <mxGeometry width="50" height="50" relative="1" as="geometry">
            <mxPoint x="180" y="600" as="sourcePoint" />
            <mxPoint x="-200" y="600" as="targetPoint" />
            <Array as="points">
              <mxPoint x="-20" y="510" />
            </Array>
          </mxGeometry>
        </mxCell>
        <mxCell id="WNrJK8pR0wpa6qFyWCyq-20" value="&lt;b&gt;Shoot&lt;/b&gt;" style="rounded=1;whiteSpace=wrap;html=1;fillColor=#dae8fc;strokeColor=#6c8ebf;" vertex="1" parent="1">
          <mxGeometry x="230" y="710" width="80" height="40" as="geometry" />
        </mxCell>
        <mxCell id="WNrJK8pR0wpa6qFyWCyq-22" value="&lt;b&gt;Build&lt;/b&gt;" style="rounded=1;whiteSpace=wrap;html=1;fillColor=#e1d5e7;strokeColor=#9673a6;" vertex="1" parent="1">
          <mxGeometry x="60" y="440" width="80" height="40" as="geometry" />
        </mxCell>
        <mxCell id="WNrJK8pR0wpa6qFyWCyq-23" value="&lt;b&gt;Normal&lt;/b&gt;" style="rounded=1;whiteSpace=wrap;html=1;fillColor=#e1d5e7;strokeColor=#9673a6;" vertex="1" parent="1">
          <mxGeometry x="-130" y="440" width="80" height="40" as="geometry" />
        </mxCell>
        <mxCell id="WNrJK8pR0wpa6qFyWCyq-26" value="" style="endArrow=classic;html=1;exitX=0;exitY=0.75;exitDx=0;exitDy=0;entryX=1;entryY=0.75;entryDx=0;entryDy=0;curved=1;" edge="1" parent="1" source="WNrJK8pR0wpa6qFyWCyq-22" target="WNrJK8pR0wpa6qFyWCyq-23">
          <mxGeometry width="50" height="50" relative="1" as="geometry">
            <mxPoint x="30" y="470" as="sourcePoint" />
            <mxPoint x="140" y="470" as="targetPoint" />
            <Array as="points" />
          </mxGeometry>
        </mxCell>
        <mxCell id="WNrJK8pR0wpa6qFyWCyq-29" value="" style="endArrow=classic;html=1;exitX=1;exitY=0.75;exitDx=0;exitDy=0;curved=1;entryX=1;entryY=0.25;entryDx=0;entryDy=0;" edge="1" parent="1" source="WNrJK8pR0wpa6qFyWCyq-22" target="WNrJK8pR0wpa6qFyWCyq-2">
          <mxGeometry width="50" height="50" relative="1" as="geometry">
            <mxPoint x="30" y="480" as="sourcePoint" />
            <mxPoint x="270" y="610" as="targetPoint" />
            <Array as="points">
              <mxPoint x="270" y="490" />
            </Array>
          </mxGeometry>
        </mxCell>
        <mxCell id="WNrJK8pR0wpa6qFyWCyq-30" value="blocks entering" style="edgeLabel;html=1;align=center;verticalAlign=middle;resizable=0;points=[];" vertex="1" connectable="0" parent="WNrJK8pR0wpa6qFyWCyq-29">
          <mxGeometry x="-0.4697" y="-39" relative="1" as="geometry">
            <mxPoint x="28" y="7" as="offset" />
          </mxGeometry>
        </mxCell>
        <mxCell id="WNrJK8pR0wpa6qFyWCyq-34" value="" style="endArrow=classic;html=1;exitX=0.5;exitY=0;exitDx=0;exitDy=0;entryX=1;entryY=0.75;entryDx=0;entryDy=0;curved=1;" edge="1" parent="1" source="WNrJK8pR0wpa6qFyWCyq-20" target="WNrJK8pR0wpa6qFyWCyq-2">
          <mxGeometry width="50" height="50" relative="1" as="geometry">
            <mxPoint x="140" y="630" as="sourcePoint" />
            <mxPoint x="30" y="630" as="targetPoint" />
            <Array as="points">
              <mxPoint x="270" y="630" />
            </Array>
          </mxGeometry>
        </mxCell>
        <mxCell id="WNrJK8pR0wpa6qFyWCyq-35" value="" style="endArrow=classic;html=1;exitX=0.25;exitY=1;exitDx=0;exitDy=0;entryX=0.5;entryY=1;entryDx=0;entryDy=0;curved=1;" edge="1" parent="1" source="WNrJK8pR0wpa6qFyWCyq-20" target="WNrJK8pR0wpa6qFyWCyq-6">
          <mxGeometry width="50" height="50" relative="1" as="geometry">
            <mxPoint x="280" y="720" as="sourcePoint" />
            <mxPoint x="220" y="640" as="targetPoint" />
            <Array as="points">
              <mxPoint x="130" y="850" />
            </Array>
          </mxGeometry>
        </mxCell>
        <mxCell id="WNrJK8pR0wpa6qFyWCyq-36" value="&lt;b&gt;&lt;i&gt;Stand&lt;/i&gt;&lt;/b&gt;" style="rounded=1;whiteSpace=wrap;html=1;fillColor=#dae8fc;strokeColor=#6c8ebf;" vertex="1" parent="1">
          <mxGeometry x="400" y="710" width="80" height="40" as="geometry" />
        </mxCell>
        <mxCell id="WNrJK8pR0wpa6qFyWCyq-38" value="" style="endArrow=classic;html=1;exitX=1;exitY=0.5;exitDx=0;exitDy=0;entryX=0;entryY=0.5;entryDx=0;entryDy=0;curved=1;" edge="1" parent="1" source="WNrJK8pR0wpa6qFyWCyq-20" target="WNrJK8pR0wpa6qFyWCyq-36">
          <mxGeometry width="50" height="50" relative="1" as="geometry">
            <mxPoint x="30" y="610" as="sourcePoint" />
            <mxPoint x="140" y="610" as="targetPoint" />
          </mxGeometry>
        </mxCell>
        <mxCell id="WNrJK8pR0wpa6qFyWCyq-39" value="" style="endArrow=classic;html=1;exitX=1;exitY=0.25;exitDx=0;exitDy=0;entryX=0;entryY=0.25;entryDx=0;entryDy=0;curved=1;" edge="1" parent="1" source="WNrJK8pR0wpa6qFyWCyq-23" target="WNrJK8pR0wpa6qFyWCyq-22">
          <mxGeometry width="50" height="50" relative="1" as="geometry">
            <mxPoint x="140" y="480" as="sourcePoint" />
            <mxPoint x="-140" y="480" as="targetPoint" />
            <Array as="points" />
          </mxGeometry>
        </mxCell>
        <mxCell id="WNrJK8pR0wpa6qFyWCyq-40" value="" style="endArrow=classic;html=1;exitX=1;exitY=0.25;exitDx=0;exitDy=0;curved=1;entryX=0.75;entryY=0;entryDx=0;entryDy=0;" edge="1" parent="1" source="WNrJK8pR0wpa6qFyWCyq-22" target="WNrJK8pR0wpa6qFyWCyq-20">
          <mxGeometry width="50" height="50" relative="1" as="geometry">
            <mxPoint x="150" y="480" as="sourcePoint" />
            <mxPoint x="220" y="610" as="targetPoint" />
            <Array as="points">
              <mxPoint x="340" y="470" />
            </Array>
          </mxGeometry>
        </mxCell>
        <mxCell id="WNrJK8pR0wpa6qFyWCyq-41" value="blocks entering" style="edgeLabel;html=1;align=center;verticalAlign=middle;resizable=0;points=[];" vertex="1" connectable="0" parent="WNrJK8pR0wpa6qFyWCyq-40">
          <mxGeometry x="-0.4697" y="-39" relative="1" as="geometry">
            <mxPoint x="26" y="-1" as="offset" />
          </mxGeometry>
        </mxCell>
        <mxCell id="WNrJK8pR0wpa6qFyWCyq-42" value="&lt;b&gt;&lt;i&gt;Fall&lt;/i&gt;&lt;/b&gt;" style="rounded=1;whiteSpace=wrap;html=1;fillColor=#dae8fc;strokeColor=#6c8ebf;" vertex="1" parent="1">
          <mxGeometry x="400" y="780" width="80" height="40" as="geometry" />
        </mxCell>
        <mxCell id="WNrJK8pR0wpa6qFyWCyq-43" value="" style="endArrow=classic;html=1;exitX=0.75;exitY=1;exitDx=0;exitDy=0;entryX=0;entryY=0.5;entryDx=0;entryDy=0;curved=1;" edge="1" parent="1" source="WNrJK8pR0wpa6qFyWCyq-20" target="WNrJK8pR0wpa6qFyWCyq-42">
          <mxGeometry width="50" height="50" relative="1" as="geometry">
            <mxPoint x="320" y="740" as="sourcePoint" />
            <mxPoint x="410" y="740" as="targetPoint" />
            <Array as="points">
              <mxPoint x="310" y="800" />
            </Array>
          </mxGeometry>
        </mxCell>
      </root>
    </mxGraphModel>
  </diagram>
</mxfile>
